<svg width="872" height="141" viewBox="0 0 872 141" fill="none" xmlns="http://www.w3.org/2000/svg">
<path d="M41.9421 43.3894V98.3489H96.9016V43.3894H41.9421Z" fill="#212121"/>
<path d="M110.006 5.7854H138.845V139.236H110.006V5.7854Z" fill="#212121"/>
<path d="M191.765 51.7773V65.7052C193.68 64.2942 195.479 62.732 197.145 61.0336C199.297 58.9244 201.592 56.9672 204.015 55.1761C208.852 51.9062 214.509 50.0573 220.344 49.8392C224.985 50.0454 229.483 51.5049 233.361 54.0624C238.037 56.8779 241.932 61.8773 245.047 69.0606C250.475 62.1473 255.778 57.2154 260.956 54.2649C265.311 51.5599 270.296 50.0347 275.419 49.8392C283.345 49.8392 290.056 53.1127 295.552 59.6596C301.157 66.4637 304.097 75.0737 303.825 83.8852V139.235H277.791V90.7262C277.929 86.3381 276.527 82.04 273.828 78.5773C272.735 77.0607 271.3 75.8236 269.639 74.9666C267.977 74.1096 266.137 73.6569 264.268 73.6454C262.046 73.6568 259.854 74.1638 257.852 75.1296C255.851 76.0954 254.09 77.4956 252.698 79.2281C249.453 82.9033 247.704 87.6612 247.795 92.563V139.235H221.964V91.9411C222.11 87.3247 220.693 82.7943 217.943 79.0835C216.871 77.4959 215.432 76.1907 213.747 75.2791C212.063 74.3675 210.183 73.8765 208.267 73.8479C206.026 73.8719 203.82 74.4052 201.816 75.4075C199.811 76.4098 198.061 77.8547 196.697 79.6331C193.439 83.4755 191.705 88.38 191.823 93.4163V139.235H165.529V51.7773H191.765Z" fill="#212121"/>
<path d="M356.715 51.7773V65.7052C358.63 64.2942 360.429 62.732 362.095 61.0336C364.24 58.9173 366.536 56.9596 368.965 55.1761C373.796 51.9038 379.449 50.0546 385.279 49.8392C389.921 50.0418 394.42 51.5016 398.296 54.0624C402.982 56.8779 406.882 61.8773 409.996 69.0606C415.425 62.1473 420.728 57.2154 425.906 54.2649C430.263 51.5635 435.246 50.0386 440.369 49.8392C448.314 49.8392 455.025 53.1127 460.501 59.6596C465.978 66.2066 468.726 74.2576 468.745 83.8129V139.235H442.712V90.7262C442.85 86.3381 441.448 82.04 438.749 78.5773C437.656 77.0607 436.221 75.8236 434.559 74.9666C432.898 74.1096 431.058 73.6569 429.189 73.6454C426.967 73.6568 424.775 74.1638 422.773 75.1296C420.771 76.0954 419.01 77.4956 417.618 79.2281C414.384 82.9076 412.645 87.6651 412.744 92.563V139.235H386.913V91.9411C387.059 87.3247 385.643 82.7943 382.893 79.0835C381.814 77.4859 380.363 76.1745 378.665 75.2624C376.967 74.3503 375.072 73.8649 373.145 73.8479C370.904 73.8708 368.697 74.4037 366.692 75.406C364.688 76.4084 362.937 77.8539 361.574 79.6331C358.316 83.4755 356.582 88.38 356.7 93.4163V139.235H330.464V51.7773H356.715Z" fill="#212121"/>
<path d="M491.859 95.702C491.859 82.2032 496.164 71.1872 504.775 62.654C513.385 54.1208 524.435 49.8494 537.924 49.8397C543.801 49.7014 549.644 50.7872 555.079 53.0281C560.514 55.269 565.424 58.616 569.497 62.8565C578.011 71.5343 582.267 82.3285 582.267 95.2392C582.267 108.401 578.011 119.315 569.497 127.983C560.983 136.652 550.323 140.991 537.519 141C523.056 141 511.837 136.411 503.863 127.231C496.077 118.582 491.796 107.34 491.859 95.702ZM556.639 95.702C556.715 90.01 554.65 84.4971 550.854 80.2555C549.233 78.2171 547.179 76.566 544.839 75.4226C542.5 74.2791 539.935 73.6721 537.331 73.6459C534.726 73.6396 532.15 74.1899 529.776 75.2599C527.401 76.33 525.283 77.8952 523.562 79.8505C519.757 83.8437 517.679 89.1749 517.777 94.6896C517.636 100.579 519.699 106.31 523.562 110.758C525.204 112.807 527.284 114.464 529.648 115.607C532.012 116.751 534.602 117.352 537.228 117.367C539.854 117.383 542.45 116.811 544.828 115.695C547.205 114.58 549.303 112.947 550.969 110.917C554.725 106.751 556.753 101.31 556.639 95.702Z" fill="#212121"/>
<path d="M629.547 51.7781V64.6935H629.952C632.242 60.6888 635.305 57.1787 638.962 54.367C641.646 52.1325 644.977 50.8194 648.464 50.621C650.069 50.605 651.672 50.7405 653.252 51.026V79.4314C651.139 79.032 648.994 78.8286 646.844 78.8239C644.467 78.7018 642.095 79.1501 639.926 80.1313C637.758 81.1126 635.855 82.5983 634.377 84.4645C631.427 88.2345 629.952 93.5087 629.952 100.287V139.236H603.513V51.7781H629.547Z" fill="#212121"/>
<path d="M680.298 21.7811H706.331V51.7774H718.813V75.6703H706.302V139.235H680.269V75.6703H670.304V51.7774H680.269L680.298 21.7811Z" fill="#212121"/>
<path d="M792.457 139.235V124.281H792.052C788.818 129.264 784.642 133.568 779.759 136.95C775.115 139.688 769.786 141.043 764.399 140.855C754.159 140.855 745.448 136.449 738.264 127.636C731.081 118.823 727.489 108.097 727.489 95.4559C727.228 83.7096 731.324 72.2823 738.987 63.3769C746.653 54.4677 755.736 50.0082 766.236 49.9986C770.962 49.9303 775.626 51.0863 779.773 53.354C784.538 56.2321 788.823 59.8385 792.472 64.0422V51.98H818.505V139.235H792.457ZM773.352 76.0754C770.871 76.0447 768.416 76.5843 766.177 77.6525C763.937 78.7208 761.973 80.2892 760.436 82.2367C756.883 86.6047 755.038 92.1144 755.244 97.741C755.004 102.898 756.772 107.947 760.176 111.828C761.831 113.605 763.852 115.003 766.099 115.924C768.346 116.845 770.766 117.269 773.192 117.165C775.714 117.175 778.208 116.63 780.495 115.567C782.782 114.505 784.807 112.952 786.426 111.018C790.078 106.928 792.038 101.603 791.908 96.1212C791.986 90.8907 790.019 85.8363 786.426 82.0342C784.807 80.1546 782.8 78.6486 780.543 77.6198C778.286 76.5911 775.832 76.0642 773.352 76.0754Z" fill="#212121"/>
<path d="M845.551 3.47144H871.585V139.236H845.551V3.47144Z" fill="#212121"/>
<path d="M870.675 0H109.92V26.0334H870.675V0Z" fill="#212121"/>
<path d="M28.926 1.44629H0V138.845H28.926V1.44629Z" fill="#212121"/>
<path d="M0 109.919L0 138.845H137.399V109.919H0Z" fill="#212121"/>
<path d="M0 0.000225067L0 28.9263L137.399 28.9263V0.000225067L0 0.000225067Z" fill="#212121"/>
</svg>
