<svg width="149" height="24" viewBox="0 0 149 24" fill="none" xmlns="http://www.w3.org/2000/svg">
<path d="M18.7622 0.984619H23.6809V23.6996H18.7622V0.984619Z" fill="white"/>
<path d="M32.7066 8.81328V11.184C33.0333 10.9438 33.3402 10.6779 33.6243 10.3888C33.9913 10.0298 34.3828 9.69667 34.796 9.3918C35.621 8.83522 36.5858 8.52052 37.581 8.4834C38.3725 8.5185 39.1397 8.76691 39.8011 9.20224C40.5986 9.68147 41.263 10.5324 41.7942 11.7551C42.7201 10.5784 43.6245 9.73891 44.5076 9.23671C45.2505 8.77628 46.1006 8.51667 46.9744 8.4834C48.3262 8.4834 49.4708 9.04058 50.4081 10.155C51.3642 11.3131 51.8657 12.7786 51.8191 14.2785V23.6997H47.379V15.4429C47.4025 14.696 47.1634 13.9644 46.7031 13.375C46.5167 13.1168 46.2719 12.9063 45.9885 12.7604C45.7052 12.6145 45.3913 12.5375 45.0725 12.5355C44.6935 12.5374 44.3197 12.6238 43.9783 12.7881C43.6369 12.9525 43.3365 13.1909 43.0991 13.4858C42.5457 14.1113 42.2473 14.9212 42.2629 15.7555V23.6997H37.8572V15.6497C37.8821 14.8639 37.6405 14.0928 37.1715 13.4611C36.9887 13.1909 36.7432 12.9688 36.4559 12.8136C36.1685 12.6584 35.8479 12.5749 35.5212 12.57C35.139 12.5741 34.7627 12.6648 34.4208 12.8354C34.079 13.006 33.7804 13.252 33.5478 13.5547C32.9921 14.2087 32.6963 15.0435 32.7165 15.9008V23.6997H28.2319V8.81328H32.7066Z" fill="white"/>
<path d="M60.8405 8.81328V11.184C61.1671 10.9438 61.474 10.6779 61.7581 10.3888C62.1239 10.0286 62.5155 9.69537 62.9298 9.3918C63.7537 8.83482 64.7178 8.52006 65.7123 8.4834C66.5039 8.51789 67.2713 8.76635 67.9324 9.20224C68.7316 9.68147 69.3968 10.5324 69.928 11.7551C70.8539 10.5784 71.7583 9.73891 72.6414 9.23671C73.3846 8.7769 74.2345 8.51734 75.1082 8.4834C76.4633 8.4834 77.6079 9.04058 78.5419 10.155C79.476 11.2693 79.9447 12.6397 79.948 14.2661V23.6997H75.5078V15.4429C75.5314 14.696 75.2922 13.9644 74.8319 13.375C74.6455 13.1168 74.4007 12.9063 74.1174 12.7604C73.834 12.6145 73.5202 12.5375 73.2014 12.5355C72.8224 12.5374 72.4485 12.6238 72.1071 12.7881C71.7657 12.9525 71.4654 13.1909 71.228 13.4858C70.6764 14.1121 70.3798 14.9218 70.3967 15.7555V23.6997H65.991V15.6497C66.0159 14.8639 65.7743 14.0928 65.3053 13.4611C65.1213 13.1892 64.8739 12.966 64.5842 12.8108C64.2946 12.6555 63.9715 12.5729 63.6427 12.57C63.2604 12.5739 62.8841 12.6646 62.5422 12.8352C62.2003 13.0058 61.9018 13.2519 61.6693 13.5547C61.1136 14.2087 60.8178 15.0435 60.838 15.9008V23.6997H56.3633V8.81328H60.8405Z" fill="white"/>
<path d="M83.8898 16.2898C83.8898 13.9921 84.624 12.117 86.0926 10.6646C87.5611 9.21213 89.4457 8.48508 91.7464 8.48344C92.7489 8.45989 93.7453 8.64471 94.6723 9.02613C95.5994 9.40756 96.4368 9.97727 97.1314 10.6991C98.5835 12.1761 99.3095 14.0134 99.3095 16.211C99.3095 18.4512 98.5835 20.3091 97.1314 21.7845C95.6793 23.2599 93.8613 23.9985 91.6773 24.0001C89.2106 24.0001 87.2972 23.2189 85.9372 21.6565C84.6091 20.1843 83.879 18.2707 83.8898 16.2898ZM94.9384 16.2898C94.9514 15.3209 94.5992 14.3826 93.9517 13.6606C93.6753 13.3136 93.3249 13.0326 92.9259 12.838C92.5269 12.6433 92.0894 12.54 91.6453 12.5356C91.201 12.5345 90.7617 12.6281 90.3567 12.8103C89.9517 12.9924 89.5904 13.2588 89.2969 13.5917C88.648 14.2713 88.2935 15.1788 88.3102 16.1175C88.2862 17.12 88.6381 18.0953 89.2969 18.8525C89.577 19.2013 89.9317 19.4833 90.3349 19.6779C90.7381 19.8726 91.1798 19.9749 91.6277 19.9775C92.0756 19.9801 92.5185 19.8829 92.9239 19.6929C93.3294 19.503 93.6873 19.2251 93.9714 18.8796C94.612 18.1704 94.9578 17.2444 94.9384 16.2898Z" fill="white"/>
<path d="M107.373 8.81313V11.0115H107.442C107.833 10.3298 108.355 9.73238 108.979 9.25379C109.437 8.87346 110.005 8.64995 110.6 8.61618C110.874 8.61345 111.147 8.63653 111.416 8.68511V13.5201C111.056 13.4521 110.69 13.4175 110.324 13.4167C109.918 13.3959 109.514 13.4722 109.144 13.6392C108.774 13.8062 108.449 14.0591 108.197 14.3768C107.694 15.0185 107.442 15.9162 107.442 17.07V23.6996H102.933V8.81313H107.373Z" fill="white"/>
<path d="M116.029 3.70752H120.469V8.81327H122.598V12.8802H120.464V23.6997H116.024V12.8802H114.325V8.81327H116.024L116.029 3.70752Z" fill="white"/>
<path d="M135.159 23.6997V21.1543H135.09C134.538 22.0025 133.826 22.735 132.993 23.3108C132.201 23.7768 131.292 24.0074 130.373 23.9755C128.627 23.9755 127.141 23.2254 125.916 21.7254C124.691 20.2253 124.078 18.3995 124.078 16.2479C124.034 14.2485 124.732 12.3035 126.039 10.7877C127.347 9.27119 128.896 8.51214 130.687 8.5105C131.493 8.49888 132.288 8.69563 132.996 9.08163C133.808 9.57152 134.539 10.1854 135.161 10.9009V8.84776H139.602V23.6997H135.159ZM131.9 12.9491C131.477 12.9439 131.058 13.0357 130.677 13.2176C130.295 13.3994 129.96 13.6663 129.697 13.9978C129.092 14.7413 128.777 15.6791 128.812 16.6369C128.771 17.5146 129.073 18.374 129.653 19.0347C129.935 19.3372 130.28 19.575 130.663 19.7318C131.047 19.8887 131.459 19.9607 131.873 19.9431C132.303 19.9448 132.729 19.852 133.119 19.6711C133.509 19.4903 133.854 19.2259 134.13 18.8968C134.753 18.2007 135.087 17.2942 135.065 16.3611C135.078 15.4708 134.743 14.6105 134.13 13.9634C133.854 13.6434 133.512 13.3871 133.127 13.212C132.742 13.0369 132.323 12.9472 131.9 12.9491Z" fill="white"/>
<path d="M144.214 0.59082H148.655V23.6997H144.214V0.59082Z" fill="white"/>
<path d="M148.499 0H18.7476V4.43122H148.499V0Z" fill="white"/>
<path d="M4.93353 0.246094H0V23.6331H4.93353V0.246094Z" fill="white"/>
<path d="M23.4343 18.7097H0V23.6333H23.4343V18.7097Z" fill="white"/>
<path d="M23.4343 0H0V4.92358H23.4343V0Z" fill="white"/>
<path d="M16.5275 7.38525H7.15381V16.7401H16.5275V7.38525Z" fill="white"/>
</svg>
